<svg height="512pt" viewBox="-96 0 512 512" width="512pt" xmlns="http://www.w3.org/2000/svg"><path d="m160 200c0-30.871094-25.121094-56-56-56s-56 25.128906-56 56 25.121094 56 56 56 56-25.128906 56-56zm-96 0c0-22.054688 17.945312-40 40-40s40 17.945312 40 40-17.945312 40-40 40-40-17.945312-40-40zm0 0"/><path d="m176 56c0-4.425781-3.585938-8-8-8h-12.6875l-13.65625-13.65625c-1.496094-1.503906-3.535156-2.34375-5.65625-2.34375h-64c-2.121094 0-4.160156.839844-5.65625 2.34375l-13.65625 13.65625h-12.6875c-4.414062 0-8 3.574219-8 8v112h16v-104h8c2.121094 0 4.160156-.839844 5.65625-2.34375l13.65625-13.65625h57.375l13.65625 13.65625c1.496094 1.503906 3.535156 2.34375 5.65625 2.34375h8v32h16zm0 0"/><path d="m160 112h16v56h-16zm0 0"/><path d="m160 240h16v56h-16zm0 0"/><path d="m32 240v104c0 4.425781 3.585938 8 8 8h12.6875l13.65625 13.65625c1.496094 1.503906 3.535156 2.34375 5.65625 2.34375h16v-16h-12.6875l-13.65625-13.65625c-1.496094-1.503906-3.535156-2.34375-5.65625-2.34375h-8v-96zm0 0"/><path d="m16 16h176v144h16v-152c0-4.425781-3.585938-8-8-8h-192c-4.414062 0-8 3.574219-8 8v384c0 4.425781 3.585938 8 8 8h104v-16h-96zm0 0"/><path d="m256 96h16v16h-16zm0 0"/><path d="m256 128h16v16h-16zm0 0"/><path d="m272 112h16v16h-16zm0 0"/><path d="m304 160h16v16h-16zm0 0"/><path d="m240 112h16v16h-16zm0 0"/><path d="m285.640625 234.328125-56.367187-56c-1.503907-1.496094-3.53125-2.328125-5.640626-2.328125h-23.632812c-4.414062 0-8 3.574219-8 8v101.816406l-17.992188 30.457032-57.230468-42.679688c-1.378906-1.042969-3.058594-1.59375-4.777344-1.59375h-25c-3.671875 0-6.871094 2.496094-7.761719 6.0625l-8 32c-.597656 2.402344-.054687 4.9375 1.472657 6.882812l86.007812 109.460938-7.679688 76.800781c-.222656 2.25.511719 4.496094 2.03125 6.167969 1.515626 1.671875 3.664063 2.625 5.929688 2.625h120c2.375 0 4.640625-1.0625 6.160156-2.886719 1.519532-1.824219 2.144532-4.242187 1.703125-6.585937l-14.800781-78.917969 15.90625-182.90625c.207031-2.375-.648438-4.703125-2.328125-6.375zm-29.503906 191.152344 13.222656 70.519531h-101.519531l5.601562-56h50.558594v-16h-49.113281c-.007813-1.785156-.488281-3.535156-1.597657-4.945312l-85.578124-108.910157 5.535156-22.144531h16.097656l62.25 46.414062c1.8125 1.363282 4.132812 1.867188 6.351562 1.433594 2.222657-.449218 4.160157-1.824218 5.3125-3.777344l23.628907-40c.730469-1.238281 1.113281-2.636718 1.113281-4.070312v-96h12.335938l51.375 51.039062-15.671876 180.265626c-.070312.726562-.039062 1.457031.097657 2.175781zm0 0"/></svg>