<?xml version="1.0" encoding="iso-8859-1"?>
<!-- Generator: Adobe Illustrator 19.0.0, SVG Export Plug-In . SVG Version: 6.00 Build 0)  -->
<svg version="1.1" id="Capa_1" xmlns="http://www.w3.org/2000/svg" xmlns:xlink="http://www.w3.org/1999/xlink" x="0px" y="0px"
	 viewBox="0 0 512 512" style="enable-background:new 0 0 512 512;" xml:space="preserve">
<g>
	<g>
		<path d="M497,421h-15v-62.58c17.459-6.192,30-22.865,30-42.42c0-24.813-20.187-45-45-45h-46v-45c0-8.284-6.716-15-15-15h-46.068
			c-6.597-45.917-43.015-82.331-88.932-88.928V90h75c8.284,0,15-6.716,15-15V15c0-8.284-6.716-15-15-15h-90c-8.284,0-15,6.716-15,15
			c0,15.113,0,91.98,0,107.072c-45.917,6.597-82.335,43.011-88.932,88.928H106c-8.284,0-15,6.716-15,15v45H45
			c-24.813,0-45,20.187-45,45c0,19.555,12.541,36.228,30,42.42V421H15c-8.284,0-15,6.716-15,15v61c0,8.284,6.716,15,15,15
			c18.612,0,465.022,0,482,0c8.284,0,15-6.716,15-15v-61C512,427.716,505.284,421,497,421z M271,30h60v30h-60V30z M467,301
			c8.271,0,15,6.729,15,15s-6.729,15-15,15H361v-30H467z M452,361v60c-8.789,0-76.831,0-91,0v-60H452z M121,241h45
			c8.284,0,15-6.716,15-15c0-41.355,33.645-75,75-75c41.355,0,75,33.645,75,75c0,8.284,6.716,15,15,15h45v30h-40.459l-86.221-57.481
			c-5.038-3.359-11.603-3.359-16.641,0L161.459,271H121V241z M286,301c-8.284,0-15,6.716-15,15v105h-30V316c0-8.284-6.716-15-15-15
			s-15,6.716-15,15v105h-30c0-23.451,0-100.692,0-126.972l75-50l75,50c0,27.247,0,97.068,0,126.972h-30V316
			C301,307.716,294.284,301,286,301z M45,301h106v30H45c-8.271,0-15-6.729-15-15S36.729,301,45,301z M151,361v60
			c-14.163,0-82.211,0-91,0v-60H151z M97.899,482c-13.857,0-54.053,0-67.899,0v-31h88.227L97.899,482z M133.773,482l20.328-31
			h203.797l20.328,31H133.773z M482,482c-13.846,0-54.041,0-67.898,0l-20.328-31H482V482z"/>
	</g>
</g>
<g>
</g>
<g>
</g>
<g>
</g>
<g>
</g>
<g>
</g>
<g>
</g>
<g>
</g>
<g>
</g>
<g>
</g>
<g>
</g>
<g>
</g>
<g>
</g>
<g>
</g>
<g>
</g>
<g>
</g>
</svg>
