<svg height="489pt" viewBox="-58 0 489 489.232" width="489pt" xmlns="http://www.w3.org/2000/svg"><path d="m365.492188 321.800781c-26.335938-10.527343-54.929688-13.953125-82.976563-9.96875v-17.207031l-10.199219 2.910156c-33.601562 9.601563-61.886718 33.175782-77.800781 64.023438v-74.71875c0-16.375 7.335937-31.632813 20.121094-41.863282 9.472656-7.578124 21.367187-11.746093 33.496093-11.746093h2.382813c14.863281 0 27.289063-10.238281 30.863281-24h.496094c15.6875 0 31.378906 1.929687 46.609375 5.738281l18.03125 4.511719v-10.25c0-22.78125-11.40625-43.292969-29.769531-55.558594 1.753906-1.375 3.457031-2.816406 5.042968-4.398437 10.78125-10.785157 16.726563-25.128907 16.726563-40.378907 0-13.910156-2.230469-27.65625-6.632813-40.839843l-5.09375-15.285157-12.746093 8.496094c-9.597657 6.390625-20.503907 10.183594-31.863281 11.40625.121093-1.3125.335937-2.601563.335937-3.9375v-9.238281c0-13.496094-4.464844-26.871094-12.558594-37.671875-9.664062-12.894531-25.066406-20.59375-41.175781-20.59375-7.953125 0-15.914062 1.882812-23.015625 5.433593l-3.25 1.625-16.574219-8.289062-10.53125 7.015625c-15.476562 10.3125-35.34375 12.96875-52.957031 7.089844l-19.992187-6.664063-20.183594 40.359375c-3.378906 6.757813-5.59375 14.070313-6.761719 21.535157-5.816406-1.984376-11.367187-4.640626-16.535156-8.089844l-12.746094-8.492188-5.09375 15.285156c-4.394531 13.191407-6.625 26.9375-6.625 40.855469 0 15.257813 5.945313 29.59375 16.726563 40.378907 1.585937 1.582031 3.289062 3.023437 5.042968 4.398437-18.359375 12.273437-29.769531 32.777344-29.769531 55.558594v10.25l18.03125-4.503907c15.234375-3.816406 30.921875-5.746093 46.609375-5.746093h11.601562c.847657 1.753906 1.789063 3.472656 2.886719 5.113281 7.878907 11.824219 21.078125 18.886719 35.296875 18.886719 15.191406 0 28.855469 8.441406 35.648438 22.035156l1.925781 3.855469v54.4375c-15.917969-30.847656-44.207031-54.421875-77.800781-64.023438l-10.199219-2.910156v17.207031c-28.039063-3.984375-56.640625-.558593-82.976563 9.96875l-7.421874 2.976563 5.679687 14.207031c7.933594 19.839844 21.824219 36.566406 39.648437 48l-15.832031 15.832031 18.503907 11.105469c21.0625 12.636719 45.167968 19.308594 69.710937 19.308594 14.582031 0 29-2.335938 42.839844-6.949219l17.847656-5.953125v116.902344h16v-68.902344l17.839844 5.945313c13.847656 4.621093 28.265625 6.957031 42.847656 6.957031 24.542969 0 48.65625-6.671875 69.710937-19.308594l18.507813-11.105469-15.832031-15.832031c17.820312-11.441406 31.703125-28.160156 39.644531-48.007813l5.679687-14.207031zm-36.046876-123.066406c-15.585937-3.65625-31.570312-5.503906-47.570312-5.503906h-.496094c-1.941406-7.46875-6.4375-13.894531-12.589844-18.207031 8.296876-4.757813 17.152344-8.398438 26.472657-10.734376 1.703125-.425781 3.335937-1.03125 4.980469-1.609374 15.1875 6.777343 25.914062 20.167968 29.203124 36.054687zm-136.65625-76.46875c11.949219-5.914063 25.085938-9.035156 38.566407-9.035156h6.664062c3.632813 0 7.257813-.445313 10.792969-1.328125 3.03125-.757813 5.863281-1.902344 8.589844-3.222656-2.414063 21.25-9.0625 41.839843-19.597656 60.550781h-7.449219zm-38.273437-22.226563v5.191407h-1.910156c-11.152344 0-21.496094-5.535157-27.679688-14.816407-1.570312-2.359374-2.402343-5.101562-2.402343-7.941406 0-3.824218 1.488281-7.417968 4.191406-10.121094l3.144531-3.144531zm-16 19.058594c4.519531 1.351563 9.242187 2.132813 14.089844 2.132813h1.910156v15.035156c0 5.886719 1.089844 11.597656 3.0625 16.964844h-19.0625zm16.03125-44.632812c.03125-3.394532.34375-6.753906.832031-10.074219 17.007813 15.898437 37.351563 27.53125 59.402344 34.210937-11.257812 1.824219-22.097656 5.511719-32.175781 10.925782zm33.695313-5.113282 3.921874-11.757812c14.367188 1.832031 26.894532 10.621094 33.503907 23.839844l2.0625 4.125c-13.957031-3.277344-27.269531-8.757813-39.488281-16.207032zm-17.726563 50.6875 39.351563 49.191407h-6.382813c-8.808594 0-17.089844-3.429688-23.3125-9.65625-6.222656-6.222657-9.65625-14.511719-9.65625-23.308594zm147.578125-42.472656c2.933594 10.1875 4.421875 20.699219 4.421875 31.328125 0 10.984375-4.28125 21.304688-12.039063 29.066407-5.273437 5.261718-11.871093 9-19.097656 10.808593-11.335937 2.839844-22.0625 7.367188-32.0625 13.300781 9.472656-21.359374 14.597656-44.429687 15.078125-67.902343 1.152344-1.648438 2.234375-3.34375 3.152344-5.136719 14.304687-.496094 28.183594-4.320312 40.546875-11.464844zm-133.800781-57.230468 2.800781-1.871094 15.421875 7.710937 10.398437-5.199219c4.898438-2.449218 10.386719-3.746093 15.867188-3.746093 11.109375 0 21.71875 5.304687 28.382812 14.195312 6.023438 8.039063 9.351563 18.015625 9.351563 28.070313v9.246094c0 7.945312-3.304687 15.226562-8.710937 20.457031-3.570313-.015625-7.113282-.261719-10.648438-.566407l-7.175781-14.351562c-10.191407-20.386719-30.679688-33.050781-53.464844-33.050781h-5.769531l-6.175782 18.523437c-5.039062-4-9.824218-8.347656-14.285156-13.082031 3.0625-7.328125 7.292969-14.167969 12.628906-20.238281 3.9375-1.746094 7.769532-3.699219 11.378907-6.097656zm-87.695313 34.632812 13.972656-27.953125 6.824219 2.273437c10.296875 3.429688 21.203125 4.453126 31.882813 3.390626-4.082032 7.59375-7.058594 15.71875-8.816406 24.175781l-9.28125-11.597657-15.785157 15.78125c-5.726562 5.730469-8.878906 13.335938-8.878906 21.433594 0 6 1.761719 11.824219 5.089844 16.816406 3.015625 4.519532 6.742187 8.367188 10.910156 11.589844v21.410156l-.175781-.089843c-19.632813-9.816407-31.824219-29.542969-31.824219-51.488281 0-8.886719 2.105469-17.789063 6.082031-25.742188zm-46.082031 53.925781c0-10.621093 1.488281-21.140625 4.425781-31.320312 6.285156 3.625 12.957032 6.417969 19.941406 8.378906 1.824219 25.902344 16.808594 48.808594 40.304688 60.558594l7.328125 3.664062v5.6875c-3.542969 1.382813-6.757813 3.335938-9.695313 5.671875-9.753906-5.679687-20.183593-10.023437-31.175781-12.765625-7.222656-1.808593-13.824219-5.546875-19.097656-10.808593-7.75-7.769532-12.03125-18.089844-12.03125-29.066407zm40.640625 84.335938c-16 0-31.992188 1.847656-47.566406 5.503906 3.285156-15.894531 14.015625-29.285156 29.191406-36.0625 1.648438.574219 3.285156 1.183594 4.992188 1.617187 8.703124 2.175782 17.03125 5.480469 24.855468 9.78125-2.542968 5.066407-4.113281 10.699219-4.113281 16.738282 0 .816406.128906 1.617187.175781 2.421875zm49.785156 24c-8.855468 0-17.074218-4.398438-21.984375-11.765625-2.90625-4.351563-4.441406-9.425782-4.441406-14.65625 0-11.898438 9.679687-21.578125 21.578125-21.578125h31.261719c.503906.554687.96875 1.128906 1.503906 1.65625 9.25 9.25 21.542969 14.34375 34.625 14.34375h47.03125c8.824219 0 16 7.175781 16 16s-7.175781 16-16 16h-2.382813c-15.753906 0-31.191406 5.417969-43.488281 15.257812-5.496093 4.398438-10.136719 9.566407-13.992187 15.207031-9.59375-18.792968-28.578125-30.464843-49.710938-30.464843zm14.671875 145.867187c-32.746093 10.925782-69.648437 6.863282-99.257812-10.898437l-.933594-.558594 16.597656-16.609375-9.925781-4.96875c-18.609375-9.300781-33.167969-24.972656-41.097656-44.183594 22.703125-7.671875 46.984375-9.648437 70.695312-5.6875l14.824219 2.488282v-14.28125c28.082031 11.136718 50.914063 33.65625 62.199219 61.882812l4.050781 10.125-2.433594-1.894531c-34.441406-26.792969-75.527343-43.808594-118.832031-49.214844l-1.984375 15.871094c40.441406 5.054687 78.824219 20.953125 110.992187 45.976562l9.289063 7.222657zm155.328125 14.972656-9.929687 4.96875 16.601562 16.609376-.929687.558593c-29.609375 17.761719-66.496094 21.824219-99.261719 10.898438l-14.195313-4.730469 9.289063-7.222656c32.167969-25.023438 70.550781-40.921875 110.992187-45.976563l-1.984374-15.871093c-43.296876 5.40625-84.382813 22.429687-118.832032 49.214843l-2.429687 1.886719 4.054687-10.125c11.289063-28.234375 34.121094-50.746094 62.199219-61.882812v14.28125l14.824219-2.472657c23.71875-3.949219 48-1.984375 70.695312 5.6875-7.925781 19.210938-22.496094 34.875-41.09375 44.175781zm0 0"/></svg>